<?xml version="1.0" encoding="UTF-8" standalone="no"?>
<!-- Svg Vector Icons : http://www.onlinewebfonts.com/icon -->

<svg
   version="1.1"
   x="0px"
   y="0px"
   viewBox="0 0 256 256"
   enable-background="new 0 0 256 256"
   xml:space="preserve"
   id="svg5"
   sodipodi:docname="g-console.svg"
   inkscape:version="1.4.2 (ebf0e940, 2025-05-08)"
   xmlns:inkscape="http://www.inkscape.org/namespaces/inkscape"
   xmlns:sodipodi="http://sodipodi.sourceforge.net/DTD/sodipodi-0.dtd"
   xmlns="http://www.w3.org/2000/svg"
   xmlns:svg="http://www.w3.org/2000/svg"><defs
   id="defs5" /><sodipodi:namedview
   id="namedview5"
   pagecolor="#505050"
   bordercolor="#eeeeee"
   borderopacity="1"
   inkscape:showpageshadow="0"
   inkscape:pageopacity="0"
   inkscape:pagecheckerboard="0"
   inkscape:deskcolor="#d1d1d1"
   inkscape:zoom="1.4309384"
   inkscape:cx="-34.243263"
   inkscape:cy="35.640947"
   inkscape:window-width="1792"
   inkscape:window-height="987"
   inkscape:window-x="0"
   inkscape:window-y="25"
   inkscape:window-maximized="1"
   inkscape:current-layer="svg5" />
<metadata
   id="metadata1"> Svg Vector Icons : http://www.onlinewebfonts.com/icon </metadata>
<g
   id="g5"><g
     id="g4"><g
       id="g3"><path
         fill="#000000"
         d="m 10,124.4 v 92 h 45.6 c 32.974396,0.28131 65.92577,0.26882 98.9,-0.1 h 45.7 45.8 v -92 -92 H 128 10 Z m 213.9,0.3 v 70.5 H 128.3 32.6 V 124.7 54.2 h 95.6 95.6 z"
         id="path1"
         sodipodi:nodetypes="ccsccccccccccccccccc" /><path
         fill="#000000"
         d="m 53.8,89.2 -5.1,5.1 15,15 15,15 -15.4,15.4 -15.4,15.4 5.2,5.2 5.2,5.2 20.6,-20.7 20.7,-20.6 -20.1,-20 c -11,-11 -20.1,-20.1 -20.3,-20.1 -0.2,0 -2.6,2.3 -5.4,5.1 z"
         id="path2"
         sodipodi:nodetypes="sccccccccccss" /></g></g></g>
<path
   style="fill:#000000;stroke-width:0.604232"
   d="m 197.01023,157.88608 c -0.49673,-0.0914 -2.53007,-1.99438 -3.67262,-3.43712 -2.98245,-3.76608 -5.49443,-5.83548 -9.30469,-7.66535 -2.02762,-0.97377 -5.06173,-1.61031 -7.74303,-1.62446 -1.57528,-0.1 -3.02799,0.42463 -4.50813,0.85071 -0.90101,0.25937 -2.22796,0.74225 -2.94877,1.07309 -2.56322,1.17647 -3.9026,1.38308 -4.96546,0.76596 -0.55757,-0.32375 -1.01677,-1.11731 -1.01042,-1.74615 -0.13288,-0.98174 1.86691,-2.89063 2.80411,-3.72539 0.71869,-0.64016 1.46886,-1.07883 3.78753,-2.21481 2.71063,-1.32799 0.69902,-0.34351 4.13505,-2.08748 1.367,-0.69381 3.47888,-1.2127 4.79004,-1.70445 0.9125,-0.34224 3.36424,-1.63541 5.22163,-2.75415 1.28176,-0.77202 2.65538,-2.134 3.31793,-3.28978 1.80075,-3.14141 2.62654,-6.25547 2.7579,-10.40025 0.0789,-2.4905 0.0479,-2.93574 -0.35281,-5.07045 -0.43858,-2.33616 -1.1654,-4.77281 -1.76021,-5.90117 -0.173,-0.32819 -0.30564,-0.71018 -0.68797,-1.72276 -0.74223,-1.96573 -3.12643,-3.96845 -4.83007,-5.04764 -1.87028,-1.18474 -4.65063,-1.99799 -7.47351,-2.18601 -1.74677,-0.38705 -3.27313,0.0139 -4.97748,0.55233 -1.27441,0.4204 -4.93525,2.431 -6.85469,3.76473 -0.62505,0.43431 -1.241,0.78902 -1.3688,0.78823 -0.56302,-0.003 -2.27691,-1.00783 -3.33097,-1.95201 -0.26592,-0.23821 -1.67356,-1.05969 -2.91251,-1.69972 -2.0808,-1.0749 -4.84855,-1.6971 -6.93076,-1.55803 -2.22973,0.14892 -3.06607,0.28071 -4.43887,0.6995 -3.90295,1.19064 -7.44869,4.01308 -9.86886,7.85569 -0.9283,1.4739 -1.5503,3.07591 -2.09382,5.39277 -0.4166,1.77583 -0.45707,2.22215 -0.4527,4.99244 0.004,2.66475 0.0569,3.27459 0.42522,4.91443 1.20607,5.37061 3.27591,8.21269 8.31988,11.42396 2.16373,1.37754 3.54781,1.90029 7.12622,2.69145 2.45131,0.54196 5.69646,1.79954 7.08138,2.7442 1.03393,0.70526 2.97449,2.74973 3.41605,3.59897 0.78209,1.50413 0.68948,3.28085 -0.20595,3.95162 -0.63855,0.47835 -1.46926,0.29273 -3.38533,-0.75644 -2.8902,-1.58256 -3.63438,-1.84426 -5.84131,-2.05415 -3.02656,-0.28784 -5.99288,0.39584 -9.9488,2.293 -3.13518,1.50356 -5.39599,3.19943 -7.59757,5.69904 -3.46057,3.92905 -3.90856,4.25727 -5.80555,4.25351 -0.72861,-0.002 -1.36414,-0.0972 -1.72373,-0.2597 -3.02698,-1.36795 -6.20312,-8.22727 -7.2076,-15.56588 -0.27338,-1.99728 -0.28465,-7.39322 -0.0209,-9.98487 0.85212,-8.37163 1.23411,-10.28459 3.1691,-15.87026 1.01035,-2.91654 2.38029,-5.77228 3.61311,-7.5318 0.89377,-1.27563 3.1978,-3.83806 4.49894,-5.00349 2.354,-2.10849 4.93769,-3.88892 8.135,-5.605856 3.35602,-1.802158 5.9221,-2.530244 9.69344,-2.750362 3.42948,-0.200161 6.84513,0.835844 10.52525,3.192428 2.00399,1.28324 4.14859,3.73435 4.89419,5.59364 0.14851,0.37031 0.33156,0.6733 0.4068,0.6733 0.0752,0 0.26936,-0.26328 0.43136,-0.58506 1.00115,-1.98854 3.30974,-4.58316 4.95725,-5.57142 2.68354,-1.609729 4.27623,-2.255355 6.79858,-2.755936 2.84343,-0.564301 6.79091,-0.236145 9.59314,0.797493 4.01461,1.480845 7.19231,3.312903 9.95155,5.737443 0.80672,0.70886 1.66347,1.4362 1.9039,1.6163 1.34218,1.00545 4.82512,5.51676 6.00294,7.77537 1.71355,3.28592 3.21188,7.95312 4.0841,12.72154 0.18835,1.02969 0.48061,2.60934 0.6495,3.51031 0.77077,4.11209 0.93893,12.07611 0.3384,16.02676 -0.99178,6.52455 -3.61201,12.22528 -6.28665,13.67759 -0.67939,0.36891 -1.69882,0.56876 -2.31899,0.45461 z m -36.37619,-12.95825 c -0.0944,-0.0644 -0.42854,-0.32296 -0.56319,-0.66325 -0.7326,-1.85149 -1.39195,-2.70525 -2.86243,-4.00605 -0.37653,-0.33308 -1.08423,-0.8201 -1.28319,-0.99822 -0.19897,-0.17812 -1.20953,-0.71166 -2.2457,-1.18566 -1.03616,-0.47399 -2.09265,-0.9601 -2.34773,-1.08027 -0.49272,-0.19065 -0.99469,-0.32723 -1.4913,-0.51563 -2.66791,-1.00218 -3.00912,-0.82525 -6.25136,-2.5319 -1.16286,-0.61211 -2.37231,-1.23885 -2.68766,-1.39274 -0.67176,-0.32783 -3.09661,-2.65659 -4.05145,-3.89091 -1.26793,-1.63906 -2.22003,-3.91086 -2.68075,-6.39656 -0.33079,-1.78466 -0.30029,-6.66854 0.0503,-8.0393 1.08976,-4.26181 3.47856,-7.57105 7.17528,-9.9401 3.92277,-2.5139 7.36494,-2.92299 11.9571,-1.42107 2.4181,0.79087 3.43071,1.46424 6.44533,4.28609 l 1.6126,1.50948 1.41809,-1.35444 c 3.59039,-3.42921 7.30894,-4.90617 11.71538,-4.65317 1.76034,0.10108 3.34873,0.5467 5.42625,1.52233 2.4999,1.17398 4.34131,3.27789 5.63026,6.43288 0.88263,2.1604 1.09087,2.93122 0.83292,3.08305 -0.22682,0.13351 -1.67221,0.41156 -2.77391,0.53362 -0.40546,0.0449 -1.36188,0.1524 -2.12538,0.23882 -0.7635,0.0864 -1.6679,0.15714 -2.00978,0.15714 -0.0752,-0.67612 -1.189,-2.0965 -1.43476,-2.53169 -0.15491,-0.27431 -1.55356,-2.09306 -2.27975,-2.6144 -0.96794,-0.69488 -2.06095,-1.00769 -3.49329,-1.20292 -1.02993,-0.14039 -1.43392,-0.11146 -2.67096,0.0657 -1.25421,0.17959 -2.95777,1.41756 -3.2008,1.69644 -0.11399,0.13081 -0.61833,0.49472 -1.12075,0.80869 -0.50243,0.31397 -1.51333,1.14441 -2.24646,1.84541 l -1.33297,1.27456 -0.69712,-0.29723 c -0.44287,-0.18883 -1.39068,-0.9711 -2.59874,-2.14485 -1.58672,-1.54166 -2.10545,-1.94264 -3.13251,-2.42142 -4.30206,-2.00547 -8.30079,-1.92611 -11.00468,1.70972 -1.48311,1.99431 -2.12645,4.37523 -2.12974,7.14027 -0.003,2.1975 0.23051,3.53994 0.91704,5.28057 0.2985,0.75683 0.51763,1.37606 0.48694,1.37606 -0.36675,0 -2.93579,-5.81805 -0.91685,-10.8714 0.75803,-1.89731 -2.39212,7.51081 3.11783,14.34351 5.98481,4.71889 10.02899,5.14156 14.68704,10.67776 l 0.81339,0.96673 0.41491,-0.66058 c 1.64805,-2.62377 2.6344,-3.4374 7.78687,-6.42329 3.84594,-2.22873 4.9031,-2.96355 6.50262,-4.51988 0.48156,-0.65392 1.49481,-1.56908 1.89889,-2.13392 0.40861,-0.63146 1.049,-2.15028 0.98354,-2.33264 -0.026,-0.0724 -1.70595,-0.16773 -3.73324,-0.21183 -2.02729,-0.0441 -3.79655,-0.0898 -3.9317,-0.10156 -0.13516,-0.0118 -0.87236,-0.0132 -1.63821,-0.003 -2.31147,0.0302 -2.21846,0.0761 -2.17054,-1.07023 0.0226,-0.54012 0.11631,-1.06841 0.2083,-1.17396 0.092,-0.10556 0.20739,-0.67102 0.25647,-1.25658 0.0491,-0.58557 0.11423,-1.10321 0.1448,-1.15031 0.0306,-0.0471 1.78747,-0.10987 3.90421,-0.13952 2.93048,-0.041 10.7411,-0.23138 14.46479,-0.3814 l 0.63892,-0.0258 -0.0401,1.16682 c -0.13421,3.91083 -1.28644,7.96966 -2.93136,10.32605 -0.76426,1.09482 -2.9965,3.17472 -3.99099,3.71863 -0.97657,0.53411 -4.29042,2.0373 -5.32419,2.4151 -0.5406,0.19758 -1.31466,0.53557 -1.72011,0.75109 -0.40548,0.21552 -1.57636,0.7573 -2.60199,1.20394 -1.02563,0.44664 -2.7262,1.35608 -3.77905,2.02099 -1.85469,1.1713 -2.35964,1.62315 -5.27282,4.71833 -0.31304,0.33262 -0.62495,0.53466 -0.72254,0.46804 z m 1.30008,-36.20054 c -64.659506,-49.762277 -64.659506,-49.762277 0,0 z m 11.8631,-6.19458 c -76.522606,-43.567697 -76.522606,-43.567697 0,0 z"
   id="path1-3" /><path
   style="fill:#66ff00;fill-rule:evenodd;stroke-width:21.665;stroke-linejoin:bevel;paint-order:fill markers stroke"
   d="m 159.75416,143.32716 c -1.03223,-2.1461 -2.9315,-3.83428 -5.93379,-5.27431 -1.26453,-0.60652 -3.58889,-1.55087 -5.16524,-2.09856 -1.57636,-0.54769 -4.0624,-1.61132 -5.52454,-2.36364 -2.38272,-1.22598 -2.83971,-1.54634 -4.40646,-3.08905 -3.63013,-3.57442 -4.83644,-6.98132 -4.63379,-13.08698 0.0828,-2.49403 0.1726,-3.17281 0.56893,-4.29915 1.36677,-3.88424 3.44466,-6.53928 6.8306,-8.72787 3.85846,-2.494 7.57131,-2.89781 12.06925,-1.31266 2.06399,0.72738 3.18881,1.46672 5.68445,3.73635 l 2.18121,1.98368 1.44442,-1.34892 c 3.23847,-3.02437 6.22889,-4.44389 9.86488,-4.68273 4.05126,-0.26612 8.59492,1.58112 10.74543,4.36858 1.42191,1.84306 3.24006,6.02426 2.805,6.45066 -0.17926,0.1757 -3.0593,0.63286 -5.48128,0.87006 -1.01281,0.0992 -1.28975,0.0714 -1.28975,-0.12944 0,-0.41522 -1.99053,-3.26534 -3.01534,-4.31748 -0.78723,-0.80822 -1.1844,-1.04579 -2.35726,-1.41002 -1.90872,-0.59276 -4.27028,-0.59686 -5.58139,-0.01 -1.16367,0.52115 -4.27669,2.81542 -5.7128,4.21029 l -1.09431,1.06287 -0.62535,-0.30221 c -0.34394,-0.16621 -1.52817,-1.13246 -2.63162,-2.14721 -1.30197,-1.19731 -2.41118,-2.03659 -3.15968,-2.39077 -5.50374,-2.60424 -9.96257,-1.25031 -12.25233,3.72044 -0.48634,1.05578 -0.53113,1.36173 -0.60394,4.12554 -0.0889,3.37621 0.17585,5.17222 1.12203,7.61039 1.25498,3.23386 2.37464,4.26207 8.71563,8.00368 3.82443,2.25667 5.53088,3.5598 7.53724,5.7558 l 1.45449,1.59196 0.76532,-1.12695 c 1.5174,-2.23445 2.74562,-3.19988 7.98118,-6.27357 3.53149,-2.07326 5.18789,-3.31533 6.74056,-5.05445 1.06383,-1.1916 2.13726,-2.98362 2.14249,-3.57678 0.003,-0.32113 -1.9087,-0.45686 -6.47489,-0.45974 -2.2703,-0.001 -4.32898,-0.0565 -4.57485,-0.1223 -0.49935,-0.1337 -0.5007,-0.34258 -0.0197,-3.0566 l 0.24214,-1.36631 3.07394,-0.11106 c 4.97824,-0.17985 15.67943,-0.44621 15.74793,-0.39197 0.0347,0.0275 -0.0319,1.0006 -0.14804,2.16245 -0.28804,2.88119 -0.98383,5.51362 -2.00416,7.58241 -0.71475,1.44921 -1.11913,1.98652 -2.47403,3.28727 -1.64429,1.57859 -3.11632,2.46763 -6.23256,3.76417 -2.38297,0.99146 -6.98299,3.12976 -8.13979,3.78374 -2.11743,1.19707 -3.39855,2.18629 -5.23157,4.03958 -0.99629,1.0073 -1.91461,1.83145 -2.04071,1.83145 -0.12611,0 -0.53467,-0.63493 -0.90793,-1.41096 z"
   id="path3" /><path
   style="fill:#66ff00;fill-rule:evenodd;stroke-width:79.2388;stroke-linejoin:bevel;paint-order:fill markers stroke"
   d="m 53.27367,159.84834 -4.69274,-4.72898 15.019404,-15.00721 c 8.260671,-8.25397 15.019403,-15.32176 15.019403,-15.7062 0,-0.38444 -6.606944,-7.31129 -14.682098,-15.393 L 49.25554,94.318929 l 4.90541,-4.867821 4.905411,-4.867821 19.909976,19.900783 19.909976,19.90078 -20.087269,20.09624 c -11.047999,11.05292 -20.254976,20.09623 -20.459952,20.09623 -0.204976,0 -2.484415,-2.12804 -5.065422,-4.72898 z"
   id="path4" /></svg>
